<svg xmlns="http://www.w3.org/2000/svg" viewBox="0 0 512 512">
  <rect width="512" height="512" rx="115" fill="#4491DF" />
  
  <!-- Top Roofline -->
  <path d="M 40 150 C 60 100, 120 70, 200 70 C 280 70, 360 80, 420 100 C 460 115, 480 135, 490 160 C 470 145, 440 125, 400 115 C 340 100, 260 90, 180 90 C 120 90, 70 115, 40 150 Z" fill="black" />
  <path d="M 130 115 C 180 100, 240 95, 320 105" fill="none" stroke="black" stroke-width="8" stroke-linecap="round" />
  
  <!-- The 'B' -->
  <path d="M 120 180 L 320 180 C 390 180, 410 200, 410 230 C 410 260, 390 275, 320 275 L 120 275 M 120 275 L 340 275 C 420 275, 440 300, 440 335 C 440 370, 420 390, 340 390 L 120 390 L 120 180" fill="none" stroke="black" stroke-width="36" stroke-linejoin="round" stroke-linecap="square" />

  <!-- Bottom Curve -->
  <path d="M 50 440 Q 256 410 462 440 Q 256 425 50 440 Z" fill="black" />
</svg>
