<svg xmlns="http://www.w3.org/2000/svg" viewBox="0 0 2250 2250">
  <style>
    path { fill: black; }
    @media (prefers-color-scheme: dark) {
      path { fill: white; }
    }
  </style>
  <g transform="translate(0, 580)">
    <path d="M1518.2,295.6 C1507.1,296.4 1496,297.2 1484.9,298.2 C1462.7,300 1440.4,301.9 1418.2,303.7 C1395.3,305.6 1372.4,307.2 1349.5,309.1 C1323.5,311.2 1297.5,313.7 1271.4,315.7 C1243.7,317.7 1216,319.5 1188.2,321 C1147.9,323.1 1107.7,325.7 1067.4,326.5 C1016.4,327.4 965.4,326.9 914.5,326.6 C895.7,326.4 876.8,325.2 858.1,324.1 C837.5,322.8 816.9,321.4 796.3,319.7 C777.2,318.1 758.2,316 739.2,314.3 C727.4,313.2 715.6,312.3 703.8,311.4 C703.7,312 703.7,312.6 703.6,313.2 C718,315.3 732.3,317.9 746.8,319.6 C775.7,323 804.6,326.1 833.6,328.9 C860,331.5 886.4,333.9 912.8,335.6 C952.2,338 991.6,340.2 1031,341.7 C1089.3,343.9 1147.7,343.2 1205.9,340.3 C1240.4,338.6 1274.8,336.7 1309.2,334.8 C1357.5,332.1 1405.7,329.4 1453.9,326.5 C1504,323.5 1554.1,322 1604.1,327.5 C1631.6,330.6 1659.2,332.4 1686.7,334.6 C1728.9,338 1770.8,343.1 1812.2,351.8 C1870.6,364 1926.9,382.4 1980.2,409.6 C2014.5,427.2 2044.5,449.4 2062.7,484.6 C2063.2,485.5 2064,486.2 2065.2,487.8 C2064.9,485.7 2064.9,484.7 2064.6,483.8 C2059.1,462.6 2048,444.6 2032.3,429.6 C2001,399.9 1964,379.5 1923.7,364.9 C1863.8,343.3 1801.9,329.5 1738.6,323.1 C1705.5,319.7 1672.2,318.4 1638.9,316.8 C1618.2,315.9 1597.3,316.2 1576.5,315.9 C1575.2,315.8 1574,315.6 1572.7,315.5 C1572.7,315 1572.7,314.6 1572.8,314.1 C1575.7,313.6 1578.6,312.8 1581.5,312.8 C1596.2,312.4 1610.9,311.8 1625.5,312 C1688.1,312.8 1750.7,314.5 1812.9,323.5 C1866,331.2 1918,343.5 1968.9,360.5 C2009.4,374 2047.8,391.7 2082.4,417.1 C2097.1,427.8 2110.8,439.6 2120.5,455.5 C2127.9,467.8 2130.7,480.6 2126.2,494.6 C2125,498.2 2124.1,501.9 2123.1,505.5 C2128.9,500.9 2134.1,495.9 2138.5,490.3 C2149.3,476.2 2151.9,460.4 2146.2,443.7 C2141.6,430 2132.6,419 2122.7,408.8 C2100.4,385.8 2073.3,370.1 2044.6,356.7 C1993.7,332.8 1939.8,319 1884.8,308.7 C1832.9,299 1780.6,292.9 1727.9,290.4 C1688.3,288.6 1648.6,289.3 1609,289.1 C1600.5,289.1 1592,290.6 1583.5,290.6 C1574.1,290.6 1564.7,289.6 1554.9,288.5 C1533.5,275 1512.3,261.2 1490.6,248.3 C1386.8,186.2 1276,143.8 1154.9,131.9 C1123.5,128.7 1091.8,126.8 1060.3,126.3 C1004.8,125.5 949.4,128.6 894.5,137 C857,142.7 819.3,148.4 782.4,157 C729.7,169.2 677.4,183 625.5,198.1 C546.3,221 466.6,241.2 385.2,254 C344.2,260.4 302.9,265.2 261.8,270.8 C239.2,273.9 216.9,278.2 195.2,285.3 C191.9,286.4 188.7,287.8 185.5,289.1 C182.4,290.5 179.3,292 176.3,293.5 C177.6,294.5 178.6,294.6 179.6,294.3 C200.5,289.2 221,282.4 242.9,281.4 C282,279.6 321,277.1 360.1,274.8 C392.5,272.9 425,271.9 457.3,268.6 C495.2,264.7 533.1,260.3 570.5,253.4 C616.8,244.8 662.7,233.7 708.6,223 C749.5,213.4 789.9,202 830.9,193 C879.3,182.4 928.1,174.1 977.5,169.7 C1004.4,167.3 1031.3,164.8 1058.2,164.1 C1118.6,162.3 1178.5,167.8 1237.8,179.8 C1277.8,187.9 1316.8,199.1 1354.9,213.6 C1406.4,233 1455.2,258 1502.9,285.2 C1508.4,288.3 1513.7,291.8 1518.2,295.6 M156.8,336.3 C149.9,342.1 142.5,347.4 136.4,353.9 C117.4,373.8 106.4,397 111.1,425.3 C115.2,450.1 131,466.3 151.6,478.8 C149.4,474 146.6,469.5 144.1,464.9 C138,454.1 135.2,442.9 138.9,430.5 C144.3,412.3 156.4,399.4 171,388.4 C196.1,369.6 224.6,358.2 254.4,349.7 C301.5,336.3 349.7,329.9 398.6,328 C454.8,325.8 510.8,330.2 566.7,336 C608.6,340.3 650.4,345.1 692.4,348.6 C729.4,351.7 766.5,353.8 803.6,355.6 C843,357.4 882.5,358.3 922,359.4 C937.5,359.8 952.9,359.4 968.4,359.4 C968.7,358.9 969,358.4 969.2,358 C968.1,357.2 966.9,355.9 965.7,355.8 C953.4,355 941.1,354.7 928.8,353.6 C889.4,350.1 850,346.5 810.6,342.6 C781.4,339.7 752.4,336.4 723.3,332.9 C682.7,328 642.1,323 601.6,317.6 C559.9,311.9 518.5,305 476.8,299.9 C446.7,296.2 416.5,293.4 386.3,292.2 C339.3,290.2 292.4,292.6 246.2,301.9 C214.7,308.2 184.5,318 156.8,336.3" />
    <path d="M1142.5,886.2 C1104,886.6 1065.5,886.8 1027,887.7 C985.5,888.5 944.1,889.8 902.6,891.2 C879.3,892 856,893.2 832.7,894.5 C808.9,895.9 785.2,897.5 761.4,899.1 C736.2,900.8 710.9,902.5 685.7,904.4 C659.5,906.5 633.3,908.9 607.1,911.1 C582.7,913.2 558.3,914.8 534,917.4 C498.1,921.3 462.3,925.6 426.5,930.1 C390.5,934.6 354.6,939.1 318.8,944.4 C279.3,950.2 240,956.8 200.7,963.2 C194.2,964.3 187.8,966.2 181.3,967.7 C181.4,968.2 181.5,968.7 181.6,969.1 C190.7,968.4 199.8,967.8 208.9,966.9 C233.2,964.4 257.5,961.5 281.8,959.1 C305.2,956.8 328.5,954.9 351.9,952.9 C378.7,950.5 405.6,948.2 432.5,946.2 C457.9,944.2 483.3,942.5 508.7,940.8 C538.4,938.9 568.1,936.9 597.9,935.2 C625.3,933.6 652.8,932.1 680.2,930.8 C706.8,929.5 733.4,928.2 760.1,927.2 C785.7,926.2 811.4,925.4 837,924.7 C886.1,923.5 935.3,921.4 984.4,921.3 C1101.7,921.1 1219.1,921.5 1336.4,922.3 C1336.4,922.3 1336.4,922.3 1336.4,922.3 C1374,922.5 1411.7,924.2 1449.3,925.4 C1490.9,926.8 1532.5,928.3 1574.2,930.1 C1598.3,931.2 1622.4,932.8 1646.5,934.3 C1672.2,935.8 1698,937.4 1723.7,939.1 C1744.7,940.4 1765.6,941.8 1786.5,943.3 C1810.6,945.1 1834.6,947.1 1858.7,949 C1880.7,950.8 1902.8,952.4 1924.9,954.3 C1951,956.4 1977.2,958.6 2003.4,961.1 C2024.4,963 2045.4,965.5 2066.4,967.8 C2070.5,968.2 2074.7,968.5 2078.9,968.9 C2079,968.5 2079.2,968.1 2079.3,967.6 C2078,967.1 2076.8,966.3 2075.4,966 C2060.6,963.4 2045.7,960.6 2030.8,958.3 C1986,951.4 1941.2,944.4 1896.3,938 C1865.4,933.6 1834.4,929.9 1803.3,926.2 C1778.1,923.2 1752.8,920.5 1727.5,917.9 C1700.8,915.2 1674.2,912.5 1647.5,910.3 C1615.1,907.6 1582.7,905.4 1550.4,903 C1514.6,900.4 1479,897.5 1443.2,895.4 C1402.2,893 1361.1,890.6 1319.9,889.5 C1261.1,887.8 1202.3,887.2 1142.5,886.2" />
    <path d="M1519.1,295.1 C1513.7,291.8 1508.4,288.3 1502.9,285.2 C1455.2,258 1406.4,233 1354.9,213.6 C1316.8,199.1 1277.8,187.9 1237.8,179.8 C1178.5,167.8 1118.6,162.3 1058.2,164.1 C1031.3,164.8 1004.4,167.3 977.5,169.7 C928.1,174.1 879.3,182.4 830.9,193 C789.9,202 749.5,213.4 708.6,223 C662.7,233.7 616.8,244.8 570.5,253.4 C533.1,260.3 495.2,264.7 457.3,268.6 C425,271.9 392.5,272.9 360.1,274.8 C321,277.1 282,279.6 242.9,281.4 C221,282.4 200.5,289.2 179.6,294.3 C178.6,294.6 177.6,294.5 176.3,293.5 C179.3,292 182.4,290.5 185.5,289.1 C188.7,287.8 191.9,286.4 195.2,285.3 C216.9,278.2 239.2,273.9 261.8,270.8 C302.9,265.2 344.2,260.4 385.2,254 C466.6,241.2 546.3,221 625.5,198.1 C677.4,183 729.7,169.2 782.4,157 C819.3,148.4 857,142.7 894.5,137 C949.4,128.6 1004.8,125.5 1060.3,126.3 C1091.8,126.8 1123.5,128.7 1154.9,131.9 C1276,143.8 1386.8,186.2 1490.6,248.3 C1512.3,261.2 1533.5,275 1554.8,289 C1543.3,294.2 1531.3,295 1519.1,295.1 z" />
  </g>
</svg>
