<svg xmlns="http://www.w3.org/2000/svg" viewBox="0 0 2250 2250">
  <style>
    .line { 
      fill: black; 
      stroke: black;
      stroke-width: 60px;
      stroke-linejoin: round;
    }
  </style>
  <rect width="2250" height="2250" rx="450" fill="#4491DF" />
  <g transform="translate(0, 580)">
    <!-- Roof Accent -->
    <path class="line" d="M1519.1,295.1 C1513.7,291.8 1508.4,288.3 1502.9,285.2 C1455.2,258 1406.4,233 1354.9,213.6 C1316.8,199.1 1277.8,187.9 1237.8,179.8 C1178.5,167.8 1118.6,162.3 1058.2,164.1 C1031.3,164.8 1004.4,167.3 977.5,169.7 C928.1,174.1 879.3,182.4 830.9,193 C789.9,202 749.5,213.4 708.6,223 C662.7,233.7 616.8,244.8 570.5,253.4 C533.1,260.3 495.2,264.7 457.3,268.6 C425,271.9 392.5,272.9 360.1,274.8 C321,277.1 282,279.6 242.9,281.4 C221,282.4 200.5,289.2 179.6,294.3 C178.6,294.6 177.6,294.5 176.3,293.5 C179.3,292 182.4,290.5 185.5,289.1 C188.7,287.8 191.9,286.4 195.2,285.3 C216.9,278.2 239.2,273.9 261.8,270.8 C302.9,265.2 344.2,260.4 385.2,254 C466.6,241.2 546.3,221 625.5,198.1 C677.4,183 729.7,169.2 782.4,157 C819.3,148.4 857,142.7 894.5,137 C949.4,128.6 1004.8,125.5 1060.3,126.3 C1091.8,126.8 1123.5,128.7 1154.9,131.9 C1276,143.8 1386.8,186.2 1490.6,248.3 C1512.3,261.2 1533.5,275 1554.8,289 C1543.3,294.2 1531.3,295 1519.1,295.1 z" />
    <!-- Bottom Line -->
    <path class="line" d="M1142.5,886.2 C1104,886.6 1065.5,886.8 1027,887.7 C985.5,888.5 944.1,889.8 902.6,891.2 C879.3,892 856,893.2 832.7,894.5 C808.9,895.9 785.2,897.5 761.4,899.1 C736.2,900.8 710.9,902.5 685.7,904.4 C659.5,906.5 633.3,908.9 607.1,911.1 C582.7,913.2 558.3,914.8 534,917.4 C498.1,921.3 462.3,925.6 426.5,930.1 C390.5,934.6 354.6,939.1 318.8,944.4 C279.3,950.2 240,956.8 200.7,963.2 C194.2,964.3 187.8,966.2 181.3,967.7 C181.4,968.2 181.5,968.7 181.6,969.1 C190.7,968.4 199.8,967.8 208.9,966.9 C233.2,964.4 257.5,961.5 281.8,959.1 C305.2,956.8 328.5,954.9 351.9,952.9 C378.7,950.5 405.6,948.2 432.5,946.2 C457.9,944.2 483.3,942.5 508.7,940.8 C538.4,938.9 568.1,936.9 597.9,935.2 C625.3,933.6 652.8,932.1 680.2,930.8 C706.8,929.5 733.4,928.2 760.1,927.2 C785.7,926.2 811.4,925.4 837,924.7 C886.1,923.5 935.3,921.4 984.4,921.3 C1101.7,921.1 1219.1,921.5 1336.4,922.3 C1336.4,922.3 1336.4,922.3 1336.4,922.3 C1374,922.5 1411.7,924.2 1449.3,925.4 C1490.9,926.8 1532.5,928.3 1574.2,930.1 C1598.3,931.2 1622.4,932.8 1646.5,934.3 C1672.2,935.8 1698,937.4 1723.7,939.1 C1744.7,940.4 1765.6,941.8 1786.5,943.3 C1810.6,945.1 1834.6,947.1 1858.7,949 C1880.7,950.8 1902.8,952.4 1924.9,954.3 C1951,956.4 1977.2,958.6 2003.4,961.1 C2024.4,963 2045.4,965.5 2066.4,967.8 C2070.5,968.2 2074.7,968.5 2078.9,968.9 C2079,968.5 2079.2,968.1 2079.3,967.6 C2078,967.1 2076.8,966.3 2075.4,966 C2060.6,963.4 2045.7,960.6 2030.8,958.3 C1986,951.4 1941.2,944.4 1896.3,938 C1865.4,933.6 1834.4,929.9 1803.3,926.2 C1778.1,923.2 1752.8,920.5 1727.5,917.9 C1700.8,915.2 1674.2,912.5 1647.5,910.3 C1615.1,907.6 1582.7,905.4 1550.4,903 C1514.6,900.4 1479,897.5 1443.2,895.4 C1402.2,893 1361.1,890.6 1319.9,889.5 C1261.1,887.8 1202.3,887.2 1142.5,886.2" />
  </g>
  <!-- The B -->
  <path d="M 740,950 L 740,1380 L 1340,1380 C 1690,1380 1690,1165 1340,1165 C 1640,1165 1640,950 1340,950 Z M 740,1165 L 1340,1165" fill="none" stroke="black" stroke-width="120" stroke-linejoin="round" stroke-linecap="round" />
</svg>
